<svg width="256" height="256" viewBox="0 0 256 256" fill="none" xmlns="http://www.w3.org/2000/svg">
  <defs>
    <linearGradient id="line" x1="40" y1="26" x2="214" y2="226" gradientUnits="userSpaceOnUse">
      <stop stop-color="#40C9FF"/>
      <stop offset="0.44" stop-color="#7F40FF"/>
      <stop offset="1" stop-color="#FF00D4"/>
    </linearGradient>
    <radialGradient id="halo" cx="0" cy="0" r="1" gradientUnits="userSpaceOnUse" gradientTransform="translate(128 126) rotate(90) scale(102)">
      <stop stop-color="#40C9FF" stop-opacity="0.18"/>
      <stop offset="0.55" stop-color="#7F40FF" stop-opacity="0.18"/>
      <stop offset="1" stop-color="#000000" stop-opacity="0"/>
    </radialGradient>
    <linearGradient id="screen" x1="82" y1="76" x2="176" y2="146" gradientUnits="userSpaceOnUse">
      <stop stop-color="#13203D"/>
      <stop offset="1" stop-color="#0B1020"/>
    </linearGradient>
    <filter id="glow" x="-45%" y="-45%" width="190%" height="190%">
      <feGaussianBlur stdDeviation="5.5" result="blur"/>
      <feMerge>
        <feMergeNode in="blur"/>
        <feMergeNode in="SourceGraphic"/>
      </feMerge>
    </filter>
  </defs>

  <rect width="256" height="256" rx="42" fill="#05060D"/>
  <circle cx="128" cy="128" r="104" fill="url(#halo)"/>
  <path d="M34 204C58 172 89 156 128 156C167 156 198 172 222 204" stroke="url(#line)" stroke-width="2" opacity="0.16"/>
  <circle cx="128" cy="128" r="108" stroke="url(#line)" stroke-width="2" opacity="0.14"/>

  <g filter="url(#glow)">
    <path d="M68 68C68 51.4 81.4 38 98 38H158C174.6 38 188 51.4 188 68V134C188 150.6 174.6 164 158 164H98C81.4 164 68 150.6 68 134V68Z" fill="#0D1222" stroke="url(#line)" stroke-width="5"/>
    <path d="M83 84C83 73.5 91.5 65 102 65H154C164.5 65 173 73.5 173 84V119C173 129.5 164.5 138 154 138H102C91.5 138 83 129.5 83 119V84Z" fill="url(#screen)" stroke="url(#line)" stroke-width="2.2"/>
    <path d="M98 65V53" stroke="url(#line)" stroke-width="4" stroke-linecap="round"/>
    <path d="M158 65V53" stroke="url(#line)" stroke-width="4" stroke-linecap="round"/>
    <circle cx="98" cy="47" r="6" fill="#40C9FF"/>
    <circle cx="158" cy="47" r="6" fill="#FF00D4"/>
    <rect x="94" y="92" width="68" height="17" rx="8.5" fill="#09111F" stroke="url(#line)" stroke-width="1.4" opacity="0.95"/>
    <circle cx="112" cy="100.5" r="5.5" fill="#40C9FF"/>
    <circle cx="144" cy="100.5" r="5.5" fill="#FF00D4"/>
    <path d="M105 121C112.5 129 143.5 129 151 121" stroke="url(#line)" stroke-width="4.2" stroke-linecap="round"/>
    <path d="M86 149H170" stroke="url(#line)" stroke-width="2.2" opacity="0.28"/>
    <path d="M104 164V189" stroke="url(#line)" stroke-width="4" stroke-linecap="round"/>
    <path d="M152 164V189" stroke="url(#line)" stroke-width="4" stroke-linecap="round"/>
    <path d="M91 190C91 183.4 96.4 178 103 178H153C159.6 178 165 183.4 165 190V196H91V190Z" fill="#0D1222" stroke="url(#line)" stroke-width="4"/>
    <path d="M79 78L58 60" stroke="url(#line)" stroke-width="4" stroke-linecap="round" opacity="0.85"/>
    <path d="M177 78L198 60" stroke="url(#line)" stroke-width="4" stroke-linecap="round" opacity="0.85"/>
    <path d="M77 120H58" stroke="url(#line)" stroke-width="4" stroke-linecap="round" opacity="0.75"/>
    <path d="M198 120H179" stroke="url(#line)" stroke-width="4" stroke-linecap="round" opacity="0.75"/>
  </g>
</svg>
